<?xml version="1.0" encoding="UTF-8"?>
<svg width="164px" height="196px" viewBox="0 0 164 196" version="1.1" xmlns="http://www.w3.org/2000/svg" xmlns:xlink="http://www.w3.org/1999/xlink">
    <title>GST DACAR 121-02 [Converted]</title>
    <g id="4››" stroke="none" stroke-width="1" fill="none" fill-rule="evenodd">
        <g id="GST-DACAR-121-02-[Converted]" fill-rule="nonzero">
            <path d="M163.977405,46.7193174 C163.974942,46.5837939 163.967553,46.4482704 163.96509,46.3127468 C163.945385,45.7246715 163.910901,45.1365962 163.866565,44.5485209 C163.854249,44.3645961 163.839471,44.1806713 163.822229,43.9991665 C163.77543,43.4594925 163.721241,42.9173983 163.654737,42.3801443 C163.627642,42.1550785 163.593159,41.9324327 163.561138,41.7097869 C163.514339,41.3782382 163.465076,41.0466896 163.410888,40.715141 C163.364088,40.4247334 163.314826,40.1319058 163.260637,39.8439183 C163.216301,39.6091721 163.167039,39.374426 163.120239,39.1396799 C163.00201,38.5588648 162.873927,37.9804697 162.73353,37.4069148 C162.708898,37.3076922 162.684267,37.2060495 162.657173,37.1068269 C162.563574,36.7365573 162.465049,36.3687077 162.361598,36.0032782 C162.361598,36.0153785 162.361598,36.0274788 162.361598,36.0395791 C161.824638,34.1301494 161.166985,32.2667008 160.361544,30.4855344 C159.920646,34.3503751 158.644749,38.0022503 156.794946,41.4048589 C156.560949,41.2669153 156.329416,41.1265517 156.095419,40.9886081 C155.745656,40.7804827 155.2752,40.5747773 154.957458,40.8288839 C154.681588,41.0491097 154.718535,41.4677806 154.782576,41.8114295 C154.920511,42.5640691 155.060909,43.3167088 155.198843,44.0693484 C154.16187,45.6520696 153.00174,47.1767093 151.755401,48.6335873 C151.666728,48.5803459 151.580519,48.5295246 151.491847,48.4762832 C151.289871,48.3552801 151.018928,48.236697 150.834194,48.3843208 C150.674091,48.5125841 150.696259,48.7521704 150.733206,48.9506156 C150.775079,49.1829416 150.819415,49.4152677 150.861288,49.6475937 C148.666648,52.077337 146.228158,54.3134753 143.691144,56.336648 C141.969422,57.7088238 140.191049,59.0059776 138.383119,60.2644104 C138.124491,60.1095263 137.865863,59.9546423 137.607236,59.8021783 C137.40526,59.6811752 137.134317,59.5625921 136.949583,59.7102159 C136.78948,59.8384793 136.811648,60.0780655 136.848595,60.2789308 C136.905246,60.5886988 136.961898,60.8960468 137.01855,61.2058149 C132.944548,63.971947 128.737538,66.5638345 124.636442,69.2960857 C124.335942,68.8967753 124.037904,68.4974649 123.737403,68.0981545 C123.468923,67.7399852 123.077287,67.3382547 122.646241,67.4665181 C122.269384,67.577841 122.131449,68.0182924 122.050166,68.3958223 C121.823559,69.4412895 121.594488,70.4867568 121.367881,71.532224 C120.067354,72.4470078 118.784068,73.3835722 117.530339,74.3564376 C114.963768,76.3481495 112.522815,78.4923254 110.202556,80.7575044 C111.934129,77.7324256 113.847974,74.8017292 115.862807,71.9896159 C123.34823,61.5470438 132.284432,52.1063778 139.003825,41.1701128 C145.723218,30.2362679 150.504136,17.4922158 147.74544,5.0119506 L147.71342,5.07003212 C143.984255,12.318121 138.774755,18.6248053 132.910065,24.3845554 C132.249948,23.9900851 131.592295,23.5980349 130.932179,23.2035646 C130.582416,22.9954392 130.11196,22.7897339 129.794217,23.0438405 C129.518348,23.2640662 129.555294,23.6827371 129.619336,24.0263861 C129.801606,25.0161919 129.983877,26.0035776 130.166148,26.9933834 C127.616818,29.3553649 124.97389,31.6302242 122.294015,33.847002 C121.237336,33.2153655 120.178194,32.5837291 119.121515,31.9520926 C118.589481,31.6350644 117.880103,31.3252963 117.397331,31.7100863 C116.9786,32.044055 117.035252,32.6781115 117.133777,33.1984251 C117.392405,34.6044817 117.653495,36.0081183 117.912123,37.4141749 C114.20759,40.3860124 110.45872,43.3360693 106.793597,46.3708283 C106.300972,46.0755806 105.805885,45.782753 105.313261,45.4875053 C105.044781,45.3277812 104.685165,45.1704771 104.443779,45.3665022 C104.231951,45.5359066 104.261509,45.8553549 104.310771,46.1191418 C104.43639,46.7943394 104.559546,47.4671169 104.685165,48.1423145 C100.364852,51.7966097 96.1997146,55.6009489 92.4114351,59.7392567 C92.4434557,57.7136639 92.3991195,55.6880711 92.2784266,53.6648984 C93.002584,52.3217634 93.7242784,50.9810485 94.4484359,49.6379135 C94.675043,49.2192426 94.8967238,48.6940889 94.6331699,48.2971985 C94.3277429,47.8398066 93.635606,47.9148286 93.0961826,48.045512 C92.6602103,48.1495747 92.2217748,48.2536374 91.7858024,48.3577001 C91.4114081,45.3326213 90.8719847,42.326903 90.1749215,39.3526455 C90.5345371,38.8541125 90.8966159,38.3531594 91.2562315,37.8546264 C91.4138712,37.6368207 91.5789003,37.3585135 91.4606705,37.1165072 C91.3251989,36.8381999 90.9310996,36.8309397 90.6182833,36.8648206 C90.2734464,36.9011216 89.9261463,36.9374225 89.5813095,36.9761435 C88.448274,32.6877918 86.9950328,28.4793021 85.2339015,24.3942357 C85.509771,23.9368438 85.7856405,23.4794518 86.0615101,23.02448 C86.2068342,22.7848937 86.3521583,22.4848059 86.2068342,22.2452197 C86.0418051,21.9693325 85.6353902,21.9935331 85.3151845,22.0540347 C84.9678845,22.1193764 84.6205845,22.1847181 84.2757476,22.2500598 C82.7510759,18.9490938 81.0416702,15.7304099 79.1352148,12.6303091 C81.6180404,20.033282 80.7805794,28.1041923 79.0810261,35.7298111 C78.7780623,35.766112 78.4775616,35.8024129 78.1745977,35.8362938 C77.7780353,35.882275 77.2903374,36.0056982 77.2016651,36.3880682 C77.1253084,36.7220369 77.4110303,37.0197047 77.6721211,37.2471906 C77.9652325,37.5012972 78.2558807,37.7578239 78.5489921,38.0119305 C77.3814729,42.8205958 75.9799573,47.5905401 74.9700778,52.4234061 C74.3863182,52.2830424 73.8000955,52.1450988 73.2163359,52.0047351 C72.6769125,51.8764718 71.9847756,51.8014499 71.6793486,52.2564217 C71.4133316,52.653312 71.6374756,53.1784657 71.8640827,53.5971366 C72.5980926,54.9596321 73.3296394,56.3197076 74.0636494,57.679783 C73.9897558,58.2509179 73.9207884,58.8220528 73.8641366,59.3956077 C73.4059962,64.0276084 73.5931933,68.7176907 74.3912444,73.3037102 C72.7655848,70.3173523 70.9551911,67.4302171 69.095535,64.5721226 C69.3911095,63.9453263 69.686684,63.3161099 69.9822585,62.6868935 C70.095562,62.4448872 70.2064025,62.1423793 70.0438365,61.9269937 C69.8591024,61.6801473 69.4723925,61.7430689 69.1718918,61.8301912 C68.6497102,61.9850752 68.1250655,62.1399593 67.6028839,62.2924232 C65.3836122,58.9188553 63.1520249,55.5525476 61.1248766,52.077337 C61.3662625,51.5642837 61.6076483,51.0536504 61.8490341,50.540597 C61.9352433,50.3590923 62.0165263,50.1316063 61.8958334,49.9718822 C61.7578986,49.7855373 61.4672504,49.8339386 61.2406433,49.8992803 C60.8539334,50.0130232 60.4672234,50.1267662 60.0805135,50.2405092 C59.314483,48.8562331 58.5829361,47.4550166 57.9105042,46.0223393 C55.558224,41.0297492 53.9030069,35.7298111 52.9497792,30.3112899 C53.2946161,29.9458603 53.639453,29.5804308 53.986753,29.2150013 C54.1246878,29.0673774 54.2749381,28.8786125 54.210897,28.6874275 C54.1370034,28.4672018 53.8463551,28.4236407 53.6123587,28.4188005 C53.2896899,28.4115404 52.9670211,28.4042802 52.6468154,28.39702 C51.8536905,22.9155771 51.7748707,17.3300716 52.4226714,11.8316883 C53.2034806,11.5437008 53.9842899,11.2557133 54.7650991,10.9677258 C55.0582105,10.861243 55.395658,10.6990988 55.4399942,10.3965909 C55.4917197,10.0481018 55.1222516,9.79157515 54.8045091,9.62701086 C54.1640977,9.29546222 53.5236863,8.96149352 52.883275,8.62994488 C53.3832884,5.70892876 54.0902041,2.82179353 55.0089481,0 C51.5113168,2.84599416 48.698433,6.17358087 46.4496038,9.83513629 C44.9273953,12.3108608 43.6687406,14.9390493 42.6416193,17.6834008 C42.614525,17.7584228 42.5849675,17.8334447 42.5578732,17.9084667 C42.2302782,18.7966298 41.9223881,19.6920531 41.6415923,20.6019969 L41.6366661,20.6189373 C41.3435547,21.5651819 41.0775377,22.5211069 40.8336887,23.486712 L40.8164469,23.5568938 C40.6021554,24.4160162 40.410032,25.2823988 40.2302242,26.1536215 C40.1834249,26.3883676 40.1366256,26.6231137 40.0922894,26.8578599 C39.9592809,27.5499979 39.8361249,28.2469761 39.7252845,28.9487944 C39.6858745,29.2004809 39.6415384,29.4497474 39.6045915,29.703854 C39.4691199,30.6186379 39.3459639,31.5358418 39.2449759,32.4603059 C37.8754809,45.0107529 39.9149447,57.6652627 42.2598356,70.075346 C43.166264,74.8791712 44.1170286,79.6926766 44.9397109,84.5182824 C44.7599031,84.5328028 44.5800953,84.5473231 44.4027506,84.5618435 C42.9987718,82.5144702 41.4297639,80.5663194 39.7819362,78.7585323 C39.9469653,78.095435 40.1144575,77.4347578 40.2794866,76.7716605 C40.3558433,76.4643125 40.4149582,76.0892027 40.1784987,75.8762372 C39.9050923,75.6293908 39.471583,75.7891149 39.143988,75.9585193 C38.6957,76.1908454 38.2449489,76.4231714 37.796661,76.6554975 C34.3753864,73.1246255 30.7275047,69.7728382 27.4392387,66.1548439 C27.6486039,65.3223422 27.8555061,64.4874204 28.0648713,63.6549187 C28.1412281,63.3475707 28.200343,62.9724609 27.9638834,62.7594954 C27.690477,62.512649 27.2569677,62.6723731 26.9293727,62.8417775 C26.385023,63.1225049 25.8406734,63.4032322 25.2987868,63.6839595 C23.9317549,62.0213762 22.6583215,60.288611 21.5400647,58.4421029 C17.8626256,52.3725847 16.0571582,45.2575993 16.2418922,38.2006954 C16.6507702,37.9828898 17.0571852,37.762664 17.4660632,37.5448584 C17.645871,37.4480558 17.8478469,37.3149524 17.85031,37.1140871 C17.85031,36.8841811 17.5892192,36.7510777 17.3700015,36.6736356 C17.0276277,36.5526325 16.6852539,36.4316293 16.3428802,36.3082061 C16.4463312,34.9505507 16.6236759,33.6001556 16.8798405,32.2642807 C17.4562107,31.9569327 18.0301178,31.6471647 18.606488,31.3398167 C18.7862958,31.2430141 18.9882717,31.1099107 18.9907349,30.9090454 C18.9907349,30.6791394 18.7296441,30.546036 18.5104263,30.468594 C18.1286426,30.3330704 17.7468589,30.1975469 17.3675384,30.0620234 C17.5301043,29.4303869 17.7099121,28.8035906 17.9044987,28.1840544 C16.379827,29.4279668 14.9807744,30.7928824 13.6876361,32.2425002 C11.5299424,34.6601432 9.70969626,37.3367329 8.27369693,40.1875672 L8.2466026,40.2383885 C7.99782741,40.7345015 7.76629407,41.2378746 7.53968697,41.7412477 C7.48057208,41.8719311 7.42145718,42.0050346 7.36480541,42.138138 C7.16529264,42.6003701 6.97563235,43.0674423 6.79828766,43.5369345 C6.72932028,43.7184392 6.66527914,43.899944 6.59877489,44.0814487 C6.43620892,44.5291603 6.2785692,44.9792921 6.13324508,45.4342639 C6.06920395,45.6399693 6.01008905,45.8480947 5.95097416,46.0538001 C5.81796564,46.4990917 5.68495713,46.9443833 5.56919046,47.394515 C5.33026775,48.3310794 5.14553371,49.2797441 4.98543086,50.233249 C4.92385285,50.6035186 4.85981171,50.9713682 4.8105493,51.3440579 C4.76867625,51.6610862 4.7391188,51.9781145 4.70709823,52.2975628 C4.66522518,52.6920331 4.62827837,53.0865033 4.60118404,53.4809736 C4.58147908,53.7859016 4.56670035,54.0908295 4.55438475,54.3981775 C4.53714291,54.8192685 4.52975354,55.2403595 4.52975354,55.6614504 C4.52975354,55.9470179 4.52975354,56.2325853 4.53467978,56.5181528 C4.54699539,56.9900651 4.57162659,57.4619774 4.60364716,57.9338897 C4.62088901,58.1710558 4.62827837,58.4106421 4.65044646,58.6478083 C4.71448759,59.3593068 4.79577057,60.0708053 4.906611,60.7823039 C6.28103232,69.6034337 10.9166254,77.596902 16.0078958,84.9877746 C16.7591476,86.0792231 17.5251781,87.1658314 18.2961348,88.2500196 C8.83282531,90.3724149 3.02971307,93.0344843 2.58635135,95.9312998 C0.251312981,103.416555 -1.82509772,112.022299 2.59127759,118.493548 C3.97062516,120.51188 5.825355,122.058301 7.93132316,123.287693 C7.93132316,123.311893 7.93132316,123.336094 7.93132316,123.360295 C7.9362494,123.58536 7.93871252,123.810426 7.94117564,124.035492 C7.94610188,124.480784 7.948565,124.928495 7.948565,125.373787 C7.948565,125.579492 7.948565,125.785198 7.94610188,125.990903 C7.94117564,126.511217 7.93132316,127.02911 7.91654443,127.549424 C7.91408131,127.672847 7.91161819,127.79627 7.90669195,127.919693 C7.8648189,129.277349 7.79585152,130.637424 7.71210542,131.9975 C7.71210542,132.03138 7.70717918,132.062841 7.70471606,132.096722 C7.42145718,136.554478 6.96577986,141.012235 6.66774226,145.474831 C6.66774226,145.486931 6.66774226,145.499031 6.66774226,145.511132 C6.63079545,146.079847 6.59384865,146.650981 6.56182808,147.219696 C6.56182808,147.222116 6.56182808,147.224536 6.56182808,147.229377 C6.45591389,149.155747 6.38202027,151.082117 6.37955715,153.008487 C6.36477843,164.213379 9.11608419,176.294334 17.7838057,183.571464 C23.8381563,188.656016 31.9024133,190.671929 39.715432,192.194148 C42.9790668,192.830625 46.2550173,193.39934 49.5408202,193.917233 C67.196469,196.695466 84.2412639,196.693045 101.884597,193.917233 C105.1704,193.39934 108.44635,192.830625 111.709985,192.194148 C119.523004,190.671929 127.587261,188.656016 133.641612,183.571464 C142.309333,176.291914 145.060639,164.210959 145.04586,153.008487 C145.033545,144.28174 143.673902,135.567093 143.496557,126.862126 C143.484242,126.27163 143.479315,125.683555 143.476852,125.09306 C143.476852,124.998677 143.476852,124.906715 143.476852,124.812332 C143.476852,124.304119 143.481779,123.795906 143.494094,123.287693 C145.602525,122.055881 147.457255,120.51188 148.83414,118.493548 C153.250515,112.022299 151.174104,103.416555 148.839066,95.9312998 C148.432651,93.2740706 143.521188,90.8177065 135.412595,88.7896937 C143.363549,82.5556112 152.063291,76.8152217 157.780194,68.6765496 C158.221093,68.0473332 158.634897,67.3987563 159.028996,66.7404991 C159.159541,66.5202734 159.277771,66.2952075 159.40339,66.0725617 C159.654629,65.6272701 159.903404,65.1795585 160.132474,64.7221665 C160.270409,64.4486994 160.398491,64.1703922 160.529037,63.894505 C160.726086,63.4758341 160.913283,63.0571632 161.093091,62.6312321 C161.221173,62.3287242 161.344329,62.0237962 161.465022,61.7164482 C161.622662,61.3074576 161.770449,60.8936268 161.915773,60.4773759 C162.026614,60.1530875 162.142381,59.828799 162.243369,59.4996705 C162.371451,59.0930999 162.482291,58.6841092 162.595595,58.2726985 C162.689193,57.9290495 162.792644,57.5902407 162.876391,57.2441717 C162.969989,56.8642218 163.043883,56.4794318 163.125166,56.0946417 C163.297584,55.2839206 163.445371,54.4659393 163.566064,53.6431178 C163.603011,53.3962714 163.644884,53.149425 163.676905,52.9001585 C163.740946,52.3895252 163.790208,51.8764718 163.834544,51.3609984 C163.856713,51.1238322 163.878881,50.886666 163.896122,50.6494998 C163.933069,50.1146659 163.960164,49.579832 163.977405,49.042578 C163.984795,48.8392927 163.989721,48.6335873 163.992184,48.430302 C164.002037,47.8591671 164.0045,47.2856122 163.992184,46.7120572 L163.977405,46.7193174 Z" id="Path" fill="#F29171"></path>
            <path d="M85.3658038,155.116915 C84.7997244,154.845986 84.1109111,155.062254 83.8253666,155.596982 C82.9962858,157.156013 81.9142226,158.422725 80.7294636,159.311562 C79.5447046,160.202776 78.2697736,160.708986 77.0324143,160.806425 C76.8821278,160.818308 76.7318412,160.823061 76.5815547,160.823061 C75.4168339,160.823061 74.2345796,160.473705 73.1199544,159.786876 C72.0053291,159.100047 70.9658471,158.075745 70.1267471,156.759125 C69.7986215,156.245786 69.0947795,156.079426 68.5537479,156.390757 C68.0127163,156.702088 67.837382,157.369904 68.1655076,157.883243 L68.1655076,157.883243 C69.1649132,159.454156 70.4348346,160.725622 71.872576,161.612083 C73.3103173,162.498544 74.9284026,163 76.5840594,163 C76.7969654,163 77.0123761,162.990494 77.2252821,162.973858 C78.9911491,162.83364 80.6818728,162.125422 82.1571859,161.015563 C83.6350036,159.903328 84.9099346,158.389453 85.8767781,156.576129 C86.1623225,156.039024 85.9343879,155.385467 85.3708133,155.114538 L85.3658038,155.116915 Z" id="Path" fill="#41110F"></path>
            <path d="M44,154 C44,157.00031 45.6541447,159.613164 48.1005899,160.981683 C49.2555107,161.627445 50.5842906,162 52,162 C53.1623719,162 54.2626514,161.746663 55.261099,161.299596 C58.0527786,160.050295 60,157.256132 60,154 C60,149.581496 56.4185036,146 52,146 C47.5814964,146 44,149.581496 44,154 Z" id="Path" fill="#41110F"></path>
            <path d="M93,154 C93,157.256132 94.9472214,160.050295 97.738901,161.299596 C98.7348649,161.744179 99.8376281,162 101,162 C102.415709,162 103.744489,161.627445 104.89941,160.981683 C107.343372,159.613164 109,157.002794 109,154 C109,149.581496 105.418504,146 101,146 C96.5814964,146 93,149.581496 93,154 Z" id="Path" fill="#41110F"></path>
            <path d="M163.979801,46.7358684 C163.97733,46.6002969 163.969916,46.4647254 163.967445,46.3291538 C163.947674,45.7408702 163.913075,45.1525865 163.868591,44.5643028 C163.856234,44.3803129 163.841406,44.1963229 163.824107,44.0147539 C163.777151,43.4748887 163.722782,42.9326025 163.656056,42.3951582 C163.628871,42.1700126 163.594272,41.9472879 163.562145,41.7245632 C163.515189,41.3928971 163.465762,41.061231 163.411393,40.7295649 C163.364437,40.4390545 163.315011,40.1461231 163.260641,39.8580336 C163.216157,39.6232043 163.16673,39.388375 163.119775,39.1535457 C163.00115,38.5725248 162.872641,37.9939249 162.731774,37.4201667 C162.707061,37.320909 162.682347,37.2192303 162.655163,37.1199726 C162.561252,36.7495718 162.462398,36.3815919 162.358602,36.0160329 C162.358602,36.0281375 162.358602,36.0402421 162.358602,36.0523467 C161.819849,34.1422405 161.160001,32.2781318 160.351873,30.4963344 C159.909502,34.3625443 158.629348,38.0157131 156.77337,41.4195272 C156.538593,41.2815348 156.306287,41.1411214 156.07151,41.0031289 C155.720579,40.7949298 155.248553,40.5891515 154.92975,40.8433482 C154.65296,41.0636519 154.69003,41.4824712 154.754285,41.8262419 C154.89268,42.5791481 155.033546,43.3320544 155.171941,44.0849606 C154.131507,45.6682425 152.967505,47.1934224 151.717006,48.6508165 C151.628038,48.5975562 151.541541,48.5467169 151.452573,48.4934567 C151.249923,48.3724106 150.978075,48.2537855 150.792725,48.4014617 C150.632088,48.5297705 150.65433,48.7694416 150.6914,48.9679571 C150.733413,49.2003654 150.777897,49.4327738 150.819909,49.6651821 C148.617944,52.0957862 146.171317,54.3327167 143.625835,56.3566061 C141.898368,57.729268 140.114059,59.0268814 138.300095,60.28576 C138.040604,60.1308211 137.781113,59.9758822 137.521622,59.8233642 C137.318973,59.7023181 137.047125,59.583693 136.861774,59.7313692 C136.701137,59.859678 136.723379,60.0993491 136.760449,60.3002855 C136.81729,60.6101633 136.874131,60.9176202 136.930972,61.227498 C132.843374,63.99461 128.622323,66.5874158 124.50754,69.3206349 C124.206036,68.9211831 123.907004,68.5217312 123.6055,68.1222793 C123.336124,67.7639831 122.943181,67.3621103 122.510696,67.4904191 C122.132581,67.6017814 121.994186,68.0423889 121.912631,68.4200525 C121.685268,69.4658901 121.455433,70.5117278 121.22807,71.5575654 C119.923202,72.4726733 118.635633,73.4095695 117.37772,74.3827795 C114.802583,76.375197 112.353484,78.5201325 110.02548,80.786114 C111.762833,77.7599635 113.683065,74.8282288 115.704622,72.0151193 C123.215028,61.5688478 132.181054,52.1248373 138.922873,41.184698 C145.664692,30.2469796 150.461565,17.4984127 147.693663,5.01372616 L147.661535,5.07182825 C143.919925,12.3224849 138.693038,18.6314034 132.808775,24.393194 C132.146455,23.998584 131.486607,23.6063949 130.824288,23.2117849 C130.473357,23.0035857 130.001331,22.7978075 129.682528,23.0520041 C129.405738,23.2723079 129.442808,23.6911271 129.507063,24.0348978 C129.689942,25.0250542 129.872821,26.0127898 130.055701,27.0029462 C127.497863,29.3657645 124.846113,31.6414297 122.157294,33.8589928 C121.097089,33.2271326 120.034412,32.5952724 118.974207,31.9634121 C118.440397,31.6462716 117.728651,31.3363937 117.244268,31.7213201 C116.82414,32.0554071 116.880981,32.6896882 116.979834,33.2101861 C117.239325,34.6167409 117.501287,36.0208747 117.760778,37.4274295 C114.043881,40.4003197 110.2825,43.3514217 106.605144,46.3872559 C106.110876,46.0919036 105.614136,45.7989723 105.119868,45.50362 C104.850492,45.3438392 104.489676,45.1864794 104.247485,45.3825739 C104.034949,45.5520384 104.064605,45.8715999 104.114032,46.1354802 C104.240071,46.810917 104.363638,47.4839329 104.489676,48.1593696 C100.154944,51.8149595 95.9759055,55.6206463 92.1749828,59.7604202 C92.2071102,57.7341099 92.1626261,55.7077995 92.0415303,53.68391 C92.7681046,52.3402992 93.4922076,50.9991093 94.2187819,49.6554985 C94.4461453,49.2366792 94.668566,48.7113395 94.4041325,48.3143086 C94.0976862,47.8567546 93.4032393,47.9318031 92.8620156,48.0625328 C92.4245882,48.1666324 91.9846895,48.270732 91.5472621,48.3748316 C91.1716182,45.3486811 90.6303945,42.3418979 89.9310049,39.3665867 C90.2918208,38.8678771 90.6551079,38.3667466 91.0159237,37.868037 C91.1740896,37.6501542 91.3396694,37.3717483 91.2210451,37.1296563 C91.0851213,36.8512504 90.6897067,36.8439877 90.3758464,36.8778806 C90.0298586,36.9141944 89.6813995,36.9505082 89.3354117,36.9892429 C88.1985948,32.6993719 86.7405035,28.4893913 84.9734945,24.4028777 C85.2502847,23.9453237 85.5270749,23.4877698 85.8038651,23.0326367 C85.9496743,22.7929656 86.0954834,22.4927715 85.9496743,22.2531004 C85.7840944,21.9771155 85.3763231,22.0013247 85.0550488,22.0618477 C84.7065896,22.1272125 84.3581305,22.1925774 84.0121428,22.2579422 C82.4823826,18.9558068 80.7672718,15.7359826 78.8544537,12.6347836 C81.3455656,20.0403791 80.5053096,28.1141487 78.8000842,35.7424689 C78.4961092,35.7787827 78.1946056,35.8150965 77.8906306,35.8489894 C77.4927447,35.8949869 77.0034191,36.0184538 76.9144508,36.4009592 C76.8378393,36.7350462 77.1245148,37.0328195 77.386477,37.260386 C77.6805666,37.5145826 77.9721849,37.7712002 78.2662745,38.0253968 C77.0948587,42.8357657 75.6886656,47.6073998 74.6754157,52.4419778 C74.0897078,52.3015645 73.5015286,52.163572 72.9158208,52.0231586 C72.374597,51.8948498 71.6801502,51.8198013 71.3737039,52.2749343 C71.106799,52.6719653 71.3316911,53.197305 71.5590544,53.6161242 C72.2955141,54.9791024 73.0295025,56.3396597 73.7659621,57.700217 C73.6918219,58.2715542 73.6226244,58.8428914 73.5657835,59.4166495 C73.106114,64.0502912 73.293936,68.7420349 74.0946505,73.3296791 C72.4635653,70.3422633 70.6471295,67.4541053 68.7812669,64.5949983 C69.0778279,63.9679799 69.3743888,63.3385406 69.6709498,62.7091013 C69.7846315,62.4670092 69.8958418,62.1643942 69.7327333,61.9489323 C69.5473827,61.7019984 69.1593821,61.7649423 68.8578785,61.8520955 C68.3339542,62.0070344 67.8075585,62.1619733 67.2836342,62.3144913 C65.0569557,58.9397282 62.8179206,55.5722279 60.7840068,52.0957862 C61.0261982,51.5825511 61.2683897,51.0717369 61.5105811,50.5585018 C61.5970781,50.3769327 61.6786323,50.1493662 61.5575366,49.9895855 C61.4191415,49.8031746 61.1275232,49.851593 60.9001598,49.9169579 C60.5121593,50.0307411 60.1241587,50.1445244 59.7361581,50.2583076 C58.967571,48.8735412 58.2335827,47.4718283 57.5589065,46.0386434 C55.1987757,41.0442846 53.5380344,35.7424689 52.5816254,30.3220281 C52.9276131,29.9564691 53.2736009,29.5909101 53.62206,29.2253511 C53.7604551,29.077675 53.9112069,28.8888432 53.8469521,28.6975905 C53.7728118,28.4772867 53.4811936,28.4337102 53.2464161,28.4288683 C52.9226704,28.4216056 52.5989247,28.4143428 52.2776504,28.4070801 C51.4818785,22.9236953 51.4027956,17.336211 52.0527583,11.8358799 C52.8361735,11.5477903 53.6195887,11.2597008 54.4030038,10.9716113 C54.6970934,10.8650908 55.0356672,10.7028891 55.0801513,10.4002741 C55.1320495,10.0516615 54.7613483,9.79504396 54.4425453,9.63042138 C53.7999966,9.29875528 53.1574479,8.96466827 52.5148991,8.63300217 C53.0165814,5.71095124 53.7258563,2.82279319 54.6476666,0 C51.1383621,2.8470024 48.3160904,6.17576796 46.0597559,9.83862053 C44.5324671,12.3152221 43.2696117,14.9443417 42.2390624,17.6896654 C42.2118777,17.7647139 42.1822216,17.8397625 42.1550368,17.914811 C41.8263484,18.8032888 41.5174308,19.6990293 41.2356979,20.6092954 L41.2307552,20.6262419 C40.9366656,21.5728217 40.6697608,22.5290853 40.425098,23.4950325 L40.4077986,23.5652392 C40.1927919,24.424666 40.0000273,25.2913555 39.8196194,26.1628868 C39.7726639,26.3977161 39.7257084,26.6325454 39.6812243,26.8673747 C39.5477719,27.5597579 39.4242048,28.256983 39.3129944,28.9590499 C39.273453,29.2108256 39.2289688,29.4601804 39.1918987,29.7143771 C39.055975,30.629485 38.9324079,31.5470138 38.8310829,32.4718054 C37.4570172,45.0266986 39.5032877,57.6856914 41.8560045,70.1001713 C42.7654581,74.9056983 43.7193958,79.720909 44.5448238,84.5482243 C44.6090786,84.9234669 44.6782762,85.2962887 44.7400597,85.6691104 C44.5052823,85.3035514 44.2532055,84.9500971 44.0060714,84.5918008 C42.5974069,82.5437022 41.0231626,80.5948613 39.3698353,78.7864337 C39.5354151,78.1231015 39.7034664,77.4621902 39.8690462,76.7988581 C39.9456578,76.4914012 40.00497,76.1161585 39.7677212,75.9031175 C39.4934023,75.6561836 39.0584463,75.8159644 38.7297579,75.9854288 C38.2799738,76.2178372 37.8277184,76.4502455 37.3779343,76.6826539 C33.9452413,73.150531 30.285185,69.7975562 26.9859445,66.1782802 C27.1960085,65.3454836 27.4036012,64.5102661 27.6136652,63.6774695 C27.6902768,63.3700126 27.749589,62.9947699 27.5123402,62.7817289 C27.2380213,62.534795 26.8030653,62.6945758 26.4743769,62.8640402 C25.9282105,63.144867 25.3820441,63.4256937 24.838349,63.7065205 C23.4667547,62.0433482 22.1890712,60.3099692 21.0670823,58.4628069 C17.3773699,52.3911385 15.5658768,45.2736325 15.7512274,38.2142286 C16.1614701,37.9963458 16.5692414,37.776042 16.979484,37.5581592 C17.1598919,37.4613224 17.3625419,37.3281717 17.3650132,37.1272354 C17.3650132,36.8972479 17.1030511,36.7640973 16.8831017,36.6866278 C16.5395853,36.5655818 16.1960688,36.4445358 15.8525524,36.3210689 C15.9563487,34.9629325 16.1342853,33.6120589 16.3913048,32.2757109 C16.9695986,31.968254 17.5454211,31.6583762 18.123715,31.3509193 C18.3041229,31.2540824 18.5067729,31.1209318 18.5092442,30.9199954 C18.5092442,30.690008 18.247282,30.5568574 18.0273327,30.4793879 C17.6442748,30.3438164 17.2612169,30.2082448 16.8806303,30.0726733 C17.0437389,29.4408131 17.2241468,28.8137947 17.4193827,28.1940391 C15.8896225,29.4383921 14.4859007,30.8037913 13.1884466,32.2539226 C11.0235517,34.6724221 9.19723055,37.34996 7.75643863,40.2018043 L7.72925387,40.2526436 C7.47964841,40.7489323 7.24734234,41.2524837 7.01997895,41.7560352 C6.96066676,41.8867649 6.90135457,42.0199155 6.84451372,42.1530661 C6.64433509,42.6154619 6.45404181,43.0826996 6.27610525,43.5523581 C6.20690769,43.7339271 6.14265282,43.9154962 6.07592661,44.0970652 C5.91281809,44.5449355 5.75465225,44.9952267 5.60884312,45.4503597 C5.54458825,45.6561379 5.48527606,45.8643371 5.42596387,46.0701153 C5.29251145,46.5155647 5.15905902,46.961014 5.04290599,47.4113052 C4.80318589,48.3482014 4.6178353,49.2972022 4.45719812,50.2510449 C4.39541459,50.6214457 4.33115972,50.9894256 4.2817329,51.3622473 C4.2397201,51.6793879 4.210064,51.9965285 4.17793657,52.31609 C4.13592377,52.7107 4.09885365,53.10531 4.07166889,53.4999201 C4.05189817,53.804956 4.03707012,54.109992 4.02471341,54.4174489 C4.00741402,54.838689 4,55.2599292 4,55.6811694 C4,55.966838 4,56.2525066 4.00494268,56.5381752 C4.01729939,57.0102547 4.0420128,57.4823341 4.07414024,57.9544136 C4.09143962,58.1916638 4.09885365,58.4313349 4.12109572,58.6685851 C4.18535059,59.3803357 4.26690485,60.0920863 4.3781152,60.8038369 C5.75712359,69.6280918 10.4081877,77.6243919 15.51645,85.0178828 C16.2702091,86.1097179 17.0387962,87.1967112 17.812326,88.2812835 C18.7390789,89.5837387 19.6683032,90.883773 20.5950562,92.1838072 C23.0713401,95.6602489 25.5031398,99.1633208 27.6433213,102.828594 C30.5298478,103.300674 33.7475341,103.731598 37.2518959,104.114103 C40.2323334,104.438506 43.4154208,104.724175 46.7715022,104.97353 C49.971889,105.208359 53.3230277,105.409295 56.8076188,105.566655 C59.5087947,105.690122 62.2865823,105.786959 65.1261533,105.859587 C65.1335673,105.859587 65.1434527,105.859587 65.1508667,105.859587 C66.5545885,105.8959 67.9756097,105.924951 69.4089876,105.94674 C69.4435864,105.94674 69.4806565,105.94674 69.5152553,105.94674 C70.9486332,105.968528 72.3943678,105.985474 73.8524591,105.992737 C73.9488414,105.992737 74.0427524,105.992737 74.1391347,105.992737 C74.9423206,105.997579 75.7479778,106 76.5585777,106 C77.0355466,106 77.5051014,105.997579 77.9795989,105.995158 C81.7558082,105.983054 85.4529347,105.927372 89.0437935,105.828115 C93.5836472,105.702227 97.9529785,105.508553 102.097418,105.256777 C105.161881,105.070367 108.097834,104.850063 110.895392,104.600708 C114.540621,104.276305 117.936243,103.901062 121.045191,103.482243 C123.766137,99.0713258 127.428665,95.3673176 131.474251,91.9344524 C132.724749,90.8740893 134.012318,89.8379354 135.317186,88.816307 C143.294676,82.580016 152.023453,76.8375928 157.759436,68.6960375 C158.201806,68.0665982 158.616991,67.4177915 159.012406,66.7593011 C159.143387,66.5389974 159.262011,66.3138518 159.388049,66.0911271 C159.640126,65.6456777 159.889732,65.1978075 160.119566,64.7402535 C160.257962,64.4666895 160.386471,64.1882837 160.517452,63.9122987 C160.71516,63.4934795 160.902982,63.0746603 161.08339,62.6485783 C161.211899,62.3459632 161.335466,62.0409273 161.456562,61.7334704 C161.614728,61.3243348 161.763008,60.9103574 161.908817,60.4939591 C162.020028,60.1695558 162.136181,59.8451524 162.237506,59.5159073 C162.366016,59.1091926 162.477226,58.7000571 162.590908,58.2885006 C162.684819,57.9447299 162.788615,57.6058011 162.872641,57.2596095 C162.966551,56.879525 163.040692,56.4945986 163.122246,56.1096723 C163.29524,55.2986639 163.44352,54.4803928 163.564616,53.6572799 C163.601686,53.410346 163.643699,53.1634121 163.675826,52.9140573 C163.740081,52.4032431 163.789508,51.890008 163.833992,51.3743519 C163.856234,51.1371017 163.878476,50.8998515 163.895776,50.6626013 C163.932846,50.1275779 163.960031,49.5925545 163.97733,49.0551102 C163.984744,48.8517529 163.989687,48.6459746 163.992158,48.4426173 C164.002043,47.8712801 164.004515,47.297522 163.992158,46.7237638 L163.979801,46.7358684 Z" id="Path" fill="#29DFA8"></path>
            <path d="M75.1863184,133.776104 C55.8806864,133.994441 36.543018,131.699484 17.8559351,126.908218 C14.2653931,125.986354 10.5319195,124.851006 7.3701725,123.002426 C7.3701725,123.026686 7.3701725,123.050945 7.3701725,123.072779 C7.37510118,123.298393 7.37756552,123.524007 7.38002986,123.749621 C7.38495854,124.195997 7.38742288,124.644799 7.38742288,125.091176 C7.38742288,125.297382 7.38742288,125.503588 7.38495854,125.709795 C7.38002986,126.231376 7.3701725,126.750531 7.35538647,127.272112 C7.35292213,127.395835 7.35045779,127.519559 7.34552911,127.643283 C7.30363535,129.004245 7.23463386,130.367634 7.15084633,131.731022 C7.15084633,131.764985 7.14591765,131.796523 7.14345331,131.830486 C6.86251866,136.2991 6.4041516,140.767715 6.10596658,145.241181 C6.10596658,145.25331 6.10596658,145.26544 6.10596658,145.27757 C6.06900149,145.84767 6.03203641,146.420196 6,146.990296 C6,146.992722 6,146.995148 6,147 L6,147 C47.4353965,146.378955 89.1295487,144.47943 128.618117,132.504902 C133.556653,131.008087 138.618405,129.220156 143,126.58314 L143,126.58314 C142.987678,125.991206 142.98275,125.401698 142.980285,124.809764 C142.980285,124.715152 142.980285,124.622966 142.980285,124.528353 C142.980285,124.018902 142.985214,123.509451 142.997536,123 C139.835789,124.84858 136.102315,125.986354 132.511773,126.908218 C113.827154,131.699484 94.4894861,133.994441 75.1813897,133.776104 L75.1863184,133.776104 Z" id="Path" fill="#F08561"></path>
            <path d="M44.7340067,84 C44.4882155,84.012959 44.2424242,84.0259179 44,84.0388769 C44.3367003,84.3585313 44.6801347,84.6760259 45,85 C44.9158249,84.6652268 44.8215488,84.3326134 44.7340067,84 Z" id="Path" fill="#F7B192"></path>
            <path d="M7.95894604,122.190021 C7.95894604,122.190021 7.95894604,122.190021 7.95894604,122.190021 C11.1311211,124.042383 14.8769085,125.182486 18.4792929,126.103805 C37.2255372,130.904875 56.6269853,133.204527 75.9987638,132.985744 C95.3705422,133.204527 114.769518,130.904875 133.518235,126.103805 C137.120619,125.180055 140.868879,124.042383 144.038581,122.18759 C146.155013,120.950251 148.016781,119.399323 149.39889,117.371934 C153.832023,110.87165 151.747733,102.227293 149.403835,94.7084524 C148.995878,92.0393005 144.065779,89.5719151 135.926417,87.5348028 C134.618482,88.5606517 133.330327,89.5986552 132.081731,90.6658298 C138.307403,92.0830571 141.909787,93.760393 141.909787,95.556844 C141.909787,100.656918 112.910223,104.791915 77.138571,104.791915 C76.3276019,104.791915 75.5215776,104.789484 74.7180259,104.784622 C74.6215997,104.784622 74.5276459,104.784622 74.4312197,104.784622 C72.9699918,104.77733 71.5235986,104.760313 70.0920402,104.738435 C70.0574257,104.738435 70.0203387,104.738435 69.9857242,104.738435 C68.5516933,104.716557 67.1300249,104.687386 65.7256636,104.650922 C65.7182462,104.650922 65.7083564,104.650922 65.700939,104.650922 C35.3860218,103.88032 12.3698271,100.105098 12.3698271,95.5617059 C12.3698271,93.8673535 15.5691993,92.2823926 21.1495572,90.9186456 C20.2223821,89.6108098 19.290262,88.3054049 18.3655594,87 C8.86634141,89.1319182 3.04120929,91.805932 2.59616525,94.7157452 C0.252266586,102.234586 -1.83202304,110.878943 2.60111018,117.379227 C3.98569167,119.406616 5.84745927,120.959975 7.96141851,122.194883 L7.95894604,122.190021 Z M136.935184,120.767932 C138.102188,115.116039 137.926643,110.55563 137.194793,104.120981 C137.110729,103.384412 137.649727,102.723201 138.398884,102.64055 C139.145569,102.557898 139.820553,103.087839 139.904617,103.824408 C140.666137,110.531321 140.844154,115.30322 139.607921,121.302735 C139.47688,121.937205 138.908213,122.377202 138.272789,122.377202 C138.18378,122.377202 138.092299,122.367478 138.000817,122.350462 C137.264022,122.202176 136.786836,121.497208 136.935184,120.770363 L136.935184,120.767932 Z M114.396175,125.474196 C115.110718,119.60109 115.246704,113.635608 114.80166,107.738192 C114.747266,106.999192 115.308516,106.357429 116.060146,106.301518 C116.811776,106.257761 117.464507,106.799856 117.518901,107.538857 C117.976307,113.606437 117.835377,119.746945 117.101054,125.792647 C117.01699,126.473305 116.428543,126.974075 115.748615,126.974075 C115.69422,126.974075 115.639826,126.971644 115.585432,126.964351 C114.838747,126.876838 114.304694,126.210765 114.393703,125.474196 L114.396175,125.474196 Z M91.6074476,126.918164 C92.245344,121.0013 92.6261039,114.984769 92.7398374,109.033873 C92.7546722,108.292442 93.3900962,107.696867 94.1268914,107.718745 C94.8809938,107.73333 95.4768583,108.343492 95.464496,109.082492 C95.3507625,115.111177 94.9650577,121.205498 94.3172713,127.19772 C94.2430973,127.88567 93.6521777,128.396164 92.9648319,128.396164 L92.8189564,128.388871 C92.0697989,128.311082 91.5283286,127.649871 91.6074476,126.915733 L91.6074476,126.918164 Z M70.9648211,127.618269 C71.8400744,121.781626 72.018092,115.840454 71.4889841,109.962485 C71.4222275,109.225916 71.9760601,108.574429 72.72769,108.508794 C73.47932,108.448021 74.1394686,108.987686 74.2062252,109.726686 C74.7526404,115.813714 74.5696779,121.966376 73.6622825,128.009647 C73.5633838,128.67572 72.9798816,129.154611 72.314788,129.154611 C72.2480314,129.154611 72.1812748,129.14975 72.1145182,129.140026 C71.3703057,129.033065 70.8560325,128.349976 70.9648211,127.618269 L70.9648211,127.618269 Z M50.2678003,126.789325 C51.340851,120.517547 51.9095184,114.112069 51.9589677,107.750347 C51.9639126,107.008916 52.6215888,106.401185 53.3336593,106.420633 C54.0852893,106.425495 54.6910437,107.030794 54.6861288,107.772225 C54.6341769,114.27494 54.0531472,120.821412 52.9553719,127.234183 C52.8441109,127.888101 52.2655536,128.352407 51.6128223,128.352407 C51.5386483,128.352407 51.4620019,128.347546 51.3853554,128.33296 C50.6436153,128.211414 50.1417045,127.518601 50.2678003,126.789325 Z M32.5723544,106.325827 C32.6514734,105.589257 33.3314018,105.052024 34.0706694,105.134675 C34.8198269,105.212465 35.3612971,105.873675 35.2821782,106.610245 C34.5898875,113.00843 34.4143423,119.506284 34.7654326,125.926348 C34.8049921,126.665348 34.2289073,127.297387 33.4772773,127.336282 L33.4031033,127.336282 C32.6836154,127.336282 32.082806,126.784463 32.0432465,126.069772 C31.6847388,119.506284 31.8627564,112.865006 32.5723544,106.325827 L32.5723544,106.325827 Z M11.9495077,100.656918 C12.0830209,99.9276411 12.7901464,99.4414568 13.5294141,99.5727265 C14.2711541,99.7039963 14.7631751,100.39924 14.6321343,101.126085 C13.4057907,107.89134 13.3637588,114.761125 14.5109834,121.540965 C14.6346068,122.270242 14.132696,122.960623 13.3909559,123.082169 C13.3143094,123.094324 13.2401354,123.099186 13.1659614,123.099186 C12.5107577,123.099186 11.9346729,122.63488 11.8234119,121.978531 C10.6267379,114.897256 10.6687698,107.723607 11.9519801,100.654487 L11.9495077,100.656918 Z" id="Shape" fill="#F7B192"></path>
            <path d="M55.2327095,161.310763 C54.2538649,161.745347 53.170057,161.995414 52.0276648,161.995414 C50.6362897,161.995414 49.3303499,161.631238 48.1952807,161 C44.5996745,161.604532 42,163.338009 42,165.384678 C42,167.933909 46.0301058,170 51,170 C55.9698942,170 60,167.933909 60,165.384678 C60,163.619639 58.0691619,162.0901 55.2327095,161.313191 L55.2327095,161.310763 Z" id="Path" fill="#EC7047"></path>
            <path d="M104.804719,161.002428 C103.66965,161.633666 102.36371,161.997842 100.972335,161.997842 C99.829943,161.997842 98.7485761,161.750202 97.7672905,161.313191 C94.9308381,162.0901 93,163.622066 93,165.384678 C93,167.933909 97.0301058,170 102,170 C106.969894,170 111,167.933909 111,165.384678 C111,163.338009 108.400325,161.604532 104.804719,161 L104.804719,161.002428 Z" id="Path" fill="#EC7047"></path>
            <path d="M55,157 C56.6568712,157 58,155.656871 58,154 C58,152.343129 56.6568712,151 55,151 C53.3431288,151 52,152.343129 52,154 C52,155.656871 53.3431288,157 55,157 Z" id="Path" fill="#FFFFFF"></path>
            <path d="M98,151 C96.3431288,151 95,152.343129 95,154 C95,155.656871 96.3431288,157 98,157 C99.6568712,157 101,155.656871 101,154 C101,152.343129 99.6568712,151 98,151 Z" id="Path" fill="#FFFFFF"></path>
            <path d="M78.839058,82.6258232 C78.848828,82.5944776 78.8610404,82.563132 78.8732528,82.5317864 L78.8463855,82.6427016 C79.974814,86.0376718 80.7270996,89.541146 80.929826,93.018097 C80.929826,93.0518538 80.929826,93.0831994 80.9322685,93.1169562 C80.9591358,93.5799067 80.9762332,94.0428571 80.9835607,94.5058076 C80.9835607,94.5371532 80.9835607,94.5660876 80.9835607,94.5974332 C80.9884456,95.0627949 80.9835607,95.5257454 80.9689058,95.9862847 C80.9689058,96.0417423 80.9615783,96.0971999 80.9591358,96.1526575 C80.9420384,96.5890848 80.9176135,97.0255121 80.8809763,97.4595281 C80.8736488,97.5511537 80.8589939,97.6403682 80.8492239,97.7319938 C80.8101442,98.1298418 80.7710644,98.5276899 80.7148872,98.9231268 C80.7002323,99.0243972 80.6806924,99.1232564 80.663595,99.2245268 C80.6049754,99.6079077 80.5463557,99.9936998 80.4706386,100.374669 C80.4535412,100.463884 80.4291164,100.553098 80.4095765,100.644724 C80.3289744,101.035338 80.2434874,101.423542 80.145788,101.811745 C80.1213631,101.90337 80.0920533,101.994996 80.065186,102.086622 C79.9626016,102.470003 79.8551322,102.850972 79.7330079,103.229531 C79.6866006,103.374203 79.627981,103.516464 79.5791313,103.658724 C79.4667769,103.981825 79.3593075,104.307337 79.2322983,104.625616 C79.0515543,105.088566 78.8537129,105.546694 78.6412167,106 C80.3069921,105.995178 81.9507851,105.978299 83.5823657,105.954187 C84.2369519,97.8163858 82.6493361,89.504978 78.9953771,82.1797511 C80.9713482,76.3832253 84.0049157,70.8543428 87.6710871,65.9644283 C89.244048,63.8690952 90.9220359,61.8677988 92.6781832,59.9364273 C92.7099356,57.9182525 92.6659708,55.9000778 92.546289,53.8843142 C93.2643799,52.546098 93.9800282,51.210293 94.6981191,49.8720767 C94.9228278,49.4549391 95.1426515,48.9317086 94.8813055,48.5362717 C94.5784373,48.0805548 93.8920987,48.155302 93.3571943,48.2855069 C92.9248743,48.3891885 92.4901118,48.4928701 92.0577918,48.5965517 C91.686534,45.5825512 91.1516295,42.5878403 90.460406,39.624475 C90.817009,39.1277677 91.1760544,38.6286492 91.5326573,38.1319419 C91.6889764,37.9149339 91.852623,37.6376458 91.7353837,37.3965258 C91.601047,37.1192377 91.2102492,37.1120041 90.9000535,37.145761 C90.5581055,37.181929 90.2137149,37.218097 89.8717669,37.2566762 C88.7482234,32.984029 87.3071567,28.7909515 85.5607793,24.7208452 C85.8343377,24.2651283 86.1078961,23.8094115 86.3814545,23.3561058 C86.5255612,23.1173969 86.6696679,22.8184081 86.5255612,22.5796992 C86.3619147,22.3048224 85.9589045,22.3289344 85.6413813,22.3892144 C85.2969908,22.4543168 84.9526003,22.5194192 84.6106523,22.5845216 C83.0987535,19.2956443 81.4036682,16.0887477 79.5131841,13 C81.9752099,20.3758621 81.1447647,28.4172155 79.4594495,36.014908 C79.1590237,36.051076 78.8610404,36.087244 78.5606146,36.1210008 C78.1673744,36.1668136 77.6837622,36.2897848 77.5958327,36.6707545 C77.5201156,37.0035001 77.803444,37.3000778 78.0623475,37.5267306 C78.3530033,37.7799067 78.6412167,38.0354939 78.9318725,38.28867 C77.7741342,43.0797252 76.3843597,47.8322012 75.3829405,52.6473684 C74.8040713,52.5075188 74.2227596,52.3700804 73.6438905,52.2302307 C73.1089861,52.1024371 72.4226475,52.0276899 72.1197793,52.4809956 C71.8559908,52.8764325 72.078257,53.399663 72.3029657,53.8168006 C73.0308265,55.1743065 73.7562448,56.5294011 74.4841056,57.8844957 C74.4108311,58.453539 74.3424415,59.0225823 74.2862643,59.5940368 C73.8319619,64.2090744 74.0175908,68.8819808 74.8089563,73.4512056 C75.023895,73.8466425 75.2412763,74.2420793 75.4488876,74.6423386 C76.7653875,77.1765102 77.9231258,79.8601763 78.839058,82.6161784 L78.839058,82.6258232 Z" id="Path" fill="#26C391"></path>
            <path d="M27.4613783,102.71199 C30.3268902,103.184988 33.5211508,103.61675 37,104 C36.1953015,101.969747 35.1722549,100.007412 34.0216341,98.1518041 C34.266969,97.5648014 34.5098506,96.9777987 34.7551855,96.3932217 C34.8508661,96.1627868 34.94164,95.8765623 34.7821723,95.6825119 C34.6006245,95.4593538 34.2448889,95.5321228 33.9701137,95.6267224 C33.5309642,95.7771115 33.0918147,95.9299262 32.6502119,96.0803153 C31.941194,95.0591248 31.2051892,94.0549136 30.4421976,93.0725331 C30.5378782,92.3205875 30.6360122,91.568642 30.7316928,90.8166964 C30.7635864,90.5668564 30.7758531,90.2636526 30.5697718,90.1156891 C30.3317969,89.945895 30.0055014,90.1108379 29.7626199,90.2733551 C29.4289644,90.4989388 29.0953089,90.7245225 28.7616534,90.9501061 C25.9182217,87.4474952 22.9300424,84.051612 20.3687458,80.3452481 C18.0159839,76.9396624 16.0557579,73.2769599 14.5027879,69.4517401 C14.9174039,68.6051949 15.3344733,67.7586497 15.7490893,66.9121046 C15.8717567,66.6622646 15.9919709,66.3493582 15.8300498,66.1237746 C15.6435953,65.8618064 15.241246,65.9200216 14.9296707,66.0073443 C14.4144673,66.1504565 13.8968106,66.2935687 13.3816073,66.4366809 C11.3011672,60.3580501 10.231507,53.9398309 10.2683072,47.5240373 C10.8963646,47.0947007 11.524422,46.6629384 12.1524794,46.2336017 C12.3830942,46.0759357 12.6431492,45.8600546 12.613709,45.5835327 C12.5793621,45.265775 12.2015464,45.1202372 11.8875177,45.0450426 C11.3747677,44.9213354 10.864471,44.7976283 10.3517211,44.6739211 C10.3983347,43.8395041 10.4645751,43.0050871 10.5504423,42.1755213 C10.906178,38.7141461 11.6716229,35.1557457 13.1215523,32 L13.1215523,32 C10.9724184,34.4232052 9.15939335,37.1059529 7.72909077,39.963346 L7.70210393,40.0142843 C7.45431566,40.5115386 7.22370084,41.0160698 6.99799271,41.520601 C6.93911233,41.6515851 6.88023195,41.7849948 6.82380492,41.9184045 C6.62508364,42.3817 6.43617575,42.8498467 6.25953461,43.3204191 C6.19084083,43.5023414 6.12705375,43.6842637 6.06081332,43.866186 C5.89889228,44.3149277 5.74187793,44.7660951 5.59713032,45.2221137 C5.53334325,45.4282923 5.47446287,45.6368965 5.41558248,45.8430752 C5.28310163,46.2893912 5.15062077,46.7357073 5.03531336,47.1868746 L5.03531336,47.1868746 C4.79733849,48.1255938 4.6133373,49.0764411 4.4538696,50.0321396 C4.39253587,50.4032611 4.32874879,50.771957 4.27968181,51.1455042 C4.23797487,51.4632618 4.20853468,51.7810194 4.17664114,52.1012027 C4.13493421,52.4965805 4.09813397,52.8919584 4.07114713,53.2873362 C4.05152033,53.5929657 4.03680024,53.8985952 4.02453349,54.2066503 C4.00736005,54.62871 4,55.0507698 4,55.4728296 C4,55.759054 4,56.0452784 4.0049067,56.3315029 C4.01717344,56.8045009 4.04170694,57.2774989 4.07360048,57.7504969 C4.09077392,57.9882087 4.09813397,58.2283462 4.12021411,58.466058 C4.18400119,59.1791935 4.26496171,59.8923289 4.37536243,60.6054644 C5.74433128,69.4468888 10.3615345,77.4587474 15.4326072,84.866624 C16.1808787,85.9605835 16.9438703,87.0496917 17.7117686,88.1363744 C18.6317746,89.4413637 19.5542339,90.7439275 20.4742398,92.0464913 C22.9324957,95.5296971 25.3465913,99.0395849 27.4711917,102.71199 L27.4613783,102.71199 Z" id="Path" fill="#26C391"></path>
            <path d="M120.492432,53.6969915 C120.00201,53.5854402 119.509136,53.4714639 119.018714,53.3599126 C118.817641,53.3138371 118.57243,53.2798867 118.435112,53.4326634 C118.275725,53.6072655 118.383618,53.8812937 118.496415,54.0874211 C118.741626,54.5312012 118.984385,54.9749814 119.229596,55.4187616 C114.224842,62.2621912 109.259322,69.127446 104.561082,76.1624529 C103.518935,75.9296502 102.479241,75.6968475 101.437095,75.4640448 C100.890275,75.3427933 100.225753,75.2554923 99.855485,75.6677471 C99.4288181,76.1454777 99.7230712,76.8875363 100.034489,77.4452928 C100.598474,78.4589546 101.162459,79.4726164 101.726444,80.4862782 C99.8211555,83.4496627 97.9624572,86.4421475 96.1846784,89.4855579 C95.7849847,90.1718409 95.3877431,90.8629739 94.9978578,91.556532 C93.7178571,91.8814857 92.4378563,92.2088646 91.1603077,92.5338183 C90.782683,92.6308195 90.3413034,92.7860213 90.2432191,93.1594756 C90.1304221,93.5911306 90.5546369,93.9597349 90.9273574,94.2070878 C91.5796183,94.6435929 92.2343313,95.0776729 92.8865922,95.514178 C91.5600014,98.1623088 90.3977019,100.88319 89.5688892,103.720473 C89.3506515,104.472232 89.1667434,105.233691 89,106 C93.5045236,105.873899 97.8398517,105.679896 101.952038,105.427693 C102.36154,96.799443 105.492883,88.5373718 109.833115,80.900958 C111.556948,77.8696727 113.462236,74.9329636 115.468061,72.1150808 C122.920019,61.6510841 131.816269,52.191049 138.505622,41.2323465 C145.194974,30.2760691 149.954517,17.5058705 147.208155,5 L147.176278,5.05820068 C147.176278,5.05820068 147.176278,5.05820068 147.176278,5.05820068 C147.034056,13.8392278 142.254896,22.7609066 137.338418,30.0675166 C131.943779,38.0846599 126.210749,45.8835506 120.492432,53.6897164 L120.492432,53.6969915 Z" id="Path" fill="#26C391"></path>
            <path d="M162.311999,42.1852832 C161.840907,42.4775013 161.369815,42.7672843 160.898724,43.0595024 C160.723606,43.1690842 160.52629,43.3176284 160.536156,43.522181 C160.548488,43.7583907 160.822264,43.8752779 161.051643,43.9434621 C161.39448,44.0433033 161.73485,44.1407094 162.07522,44.2405506 C161.167566,50.6474325 158.745514,56.9008999 155.329482,62.4481736 C154.806595,63.2980413 154.254111,64.1259926 153.689294,64.9466384 C153.082548,64.8078348 152.478268,64.6714664 151.871521,64.5326628 C151.558282,64.4620434 151.175983,64.4084701 150.961402,64.6446797 C150.714757,64.9174166 150.882475,65.343568 151.06006,65.6650079 C151.365899,66.2177872 151.669273,66.7705664 151.975112,67.3233457 C149.21269,70.9517205 146.058102,74.2878772 142.664268,77.3878242 C142.23264,77.2904182 141.801011,77.190577 141.366916,77.093171 C141.164668,77.0469031 140.918023,77.012811 140.779902,77.1662255 C140.622049,77.3415564 140.728106,77.6167284 140.844029,77.8237163 C140.992016,78.0891477 141.137537,78.3570143 141.285524,78.6224457 C138.730283,80.8676548 136.054186,82.9886713 133.318894,85.002541 C127.441347,89.3298041 121.198765,93.2674431 116.108015,98.4762308 C115.318752,99.2822657 114.568951,100.137004 113.848748,101.018528 C113.446717,100.925993 113.044686,100.835892 112.642655,100.743356 C112.440406,100.697088 112.193761,100.662996 112.05564,100.816411 C111.895321,100.991742 112.003845,101.266914 112.117301,101.473902 C112.307218,101.819693 112.497134,102.165484 112.689517,102.511276 C112.092637,103.319746 111.520421,104.145262 111,105 C114.638012,104.67369 118.026912,104.296241 121.129705,103.87496 C123.845265,99.4381154 127.500542,95.7123346 131.538118,92.2592906 C132.786141,91.1926945 134.071161,90.15045 135.373446,89.1228163 C143.335142,82.8498677 152.046639,77.0736898 157.771267,68.8842774 C158.212761,68.2511382 158.627124,67.5985177 159.021756,66.9361567 C159.152478,66.714558 159.270867,66.4880889 159.396656,66.2640551 C159.648234,65.8159873 159.897345,65.3654844 160.126725,64.9052409 C160.264846,64.6300688 160.393102,64.3500265 160.523823,64.0724193 C160.721139,63.6511382 160.908589,63.2298571 161.08864,62.8012705 C161.216895,62.4968767 161.340218,62.1900476 161.461074,61.8807835 C161.618927,61.469243 161.766913,61.0528322 161.912434,60.6339862 C162.023424,60.307676 162.139347,59.9813658 162.240472,59.6501853 C162.368727,59.2410799 162.479717,58.8295394 162.593174,58.4155638 C162.686899,58.0697724 162.79049,57.7288512 162.874349,57.3806247 C162.968074,56.998306 163.042067,56.611117 163.12346,56.223928 C163.296112,55.4081525 163.444099,54.5850715 163.564955,53.7571202 C163.601951,53.5087348 163.643881,53.2603494 163.675945,53.0095289 C163.740072,52.495712 163.789401,51.97946 163.833797,51.4607729 C163.855996,51.2221281 163.878194,50.9834833 163.895459,50.7448385 C163.932455,50.2066702 163.959586,49.6685019 163.976852,49.1278984 C163.984251,48.9233457 163.989184,48.7163579 163.99165,48.5118052 C164.001516,47.9371096 164.003982,47.3599788 163.99165,46.7828481 C163.989184,46.6464796 163.981784,46.5101112 163.979318,46.3737427 C163.959586,45.7820011 163.925056,45.1902594 163.88066,44.5985177 C163.868328,44.4134463 163.853529,44.2283748 163.836264,44.0457385 C163.789401,43.5026998 163.73514,42.957226 163.668545,42.4166226 C163.641414,42.1901535 163.606884,41.9661196 163.57482,41.7420858 C163.527958,41.4084701 163.478629,41.0748544 163.424367,40.7412388 C163.377504,40.4490206 163.328176,40.1543674 163.273914,39.8645844 C163.229518,39.6283748 163.180189,39.3921652 163.133326,39.1559555 C163.014937,38.5715193 162.886681,37.9895183 162.746094,37.4123875 C162.721429,37.3125463 162.696765,37.21027 162.669634,37.1104288 C162.575909,36.7378507 162.477251,36.3677078 162.37366,36 C162.37366,36.0121758 162.37366,36.0243515 162.37366,36.0365273 C162.52658,38.0844891 162.494516,40.1397565 162.309532,42.1877184 L162.311999,42.1852832 Z" id="Path" fill="#26C391"></path>
            <path d="M47.2283743,104.411385 C50.3712323,104.644429 53.6621322,104.843837 57.0840856,105 C57.0209858,104.221587 56.9336167,103.443174 56.8365401,102.664762 C57.4481232,101.766223 58.0621333,100.867685 58.6737165,99.9667442 C58.8897121,99.6496131 59.1129885,99.2459916 58.9358235,98.9072379 C58.7319625,98.515629 58.1737715,98.5180315 57.7320725,98.5756917 C57.2272737,98.6429619 56.7224749,98.7078296 56.2176761,98.7750999 C55.5939584,95.5172981 54.7299758,92.2931314 53.7276589,89.1506499 C52.0336706,83.8459107 49.9610832,78.6588943 48.0171225,73.4382429 C48.5656058,72.6309999 49.116516,71.823757 49.6649993,71.0189166 C49.880995,70.7017854 50.1042714,70.298164 49.9271064,69.9594102 C49.7232453,69.5678013 49.1650544,69.5702038 48.7233554,69.627864 C48.0559531,69.7143544 47.3885509,69.8032472 46.7211486,69.89214 C45.6387435,66.8433564 44.6388535,63.7681453 43.8185555,60.6400789 C42.7410042,56.526984 41.9935136,52.3346062 41.5663762,48.1085934 C42.3041591,47.6016641 43.039515,47.0971372 43.7772979,46.5902079 C44.0515395,46.4028122 44.3573311,46.1481463 44.3233543,45.8190026 C44.2845236,45.4394062 43.8355439,45.2688281 43.4617986,45.1799353 C42.7385773,45.0045521 42.012929,44.829169 41.2897076,44.6561884 C40.5980362,32.9127257 42.3793935,21.0203075 46.534276,10 L46.534276,10 C46.534276,10 46.534276,10 46.534276,10 C45.0344411,12.4577664 43.7967132,15.0692934 42.7822618,17.7913358 C42.7555657,17.8658136 42.7264427,17.9402913 42.6997466,18.0147691 C42.3769666,18.8964898 42.0736019,19.785418 41.7969333,20.6887613 L41.7920795,20.7055789 C41.5032763,21.6449598 41.2411693,22.5939507 41.0009044,23.5525517 L40.983916,23.6222245 C40.7727742,24.4751151 40.5834747,25.3352132 40.4063097,26.2001163 C40.3601983,26.4331597 40.3140868,26.666203 40.2704023,26.8992464 C40.1393488,27.5863639 40.0180029,28.2782864 39.9087916,28.9750139 C39.869961,29.2248748 39.8262765,29.4723332 39.7898727,29.7245966 C39.6563922,30.6327449 39.5350464,31.5432957 39.4355428,32.4610541 C38.0861767,44.9204643 40.0956643,57.4831824 42.4060896,69.8032472 C43.2991952,74.572227 44.2359852,79.3508169 45.0465756,84.1414193 C45.1096755,84.5138081 45.1776292,84.8837944 45.2383021,85.2537808 C46.2891573,91.6108189 47.0876131,97.991882 47.2210936,104.413788 L47.2283743,104.411385 Z" id="Path" fill="#26C391"></path>
            <path d="M83.7322894,90.9821014 C84.2257465,91.0799671 84.7068052,90.7667968 84.8059926,90.2799148 C86.3012422,83.0207245 89.5793846,76.3536219 93.8593195,70.1831878 C98.1392544,64.0152004 103.420982,58.3512215 108.896124,53.1154051 C119.851369,42.6364324 132.09357,33.033358 140.841895,20.4062326 C141.124579,19.9951965 141.017953,19.4373619 140.603846,19.1559979 C140.187259,18.8770806 139.621891,18.9822862 139.336727,19.3908756 C130.804134,31.7244039 118.673519,41.2687589 107.626526,51.8235775 C102.10179,57.1058801 96.7357531,62.8530449 92.3541512,69.1653843 C87.975029,75.4777236 84.575382,82.3650241 83.0181403,89.9178116 C82.918953,90.4046936 83.2363525,90.8793424 83.7298097,90.9772081 L83.7322894,90.9821014 Z" id="Path" fill="#CEDE89"></path>
            <path d="M65.4488778,84.6621153 C67.0673317,88.5360048 68.1645885,92.6993505 68.1645885,96.7710351 C68.1645885,98.5029483 67.967581,100.220389 67.5311721,101.896823 C67.4064838,102.372014 67.7057357,102.854441 68.1970075,102.972635 C68.6882793,103.093242 69.1870324,102.803786 69.3092269,102.328595 C69.7880299,100.495372 70,98.6307915 70,96.7686229 C70,92.388185 68.8304239,88.0173956 67.1521197,83.9939538 C64.7605985,78.2699564 61.3915212,73.0766288 58.6284289,67.6951547 C52.2069825,55.195469 48.8329177,41.2388534 48.8329177,27.2798257 C48.8329177,26.1581827 48.8553616,25.0389519 48.8977556,23.9197211 C48.9177057,23.4300576 48.521197,23.0199946 48.0174564,23 C47.5112219,22.9814004 47.0872818,23.3649299 47.0673317,23.8521813 L47.0673317,23.8521813 C47.0224439,24.9955335 47,26.1364735 47,27.2798257 C47,41.5138368 50.436409,55.7357873 56.9875312,68.483923 C59.80798,73.9691189 63.1471322,79.1262645 65.4538653,84.657291 L65.4488778,84.6621153 Z" id="Path" fill="#CEDE89"></path>
            <path d="M33.1858799,84.4311009 C37.2313306,89.1916745 40.8366801,94.4314678 42.1942806,100.303734 C42.3061708,100.785386 42.796001,101.087027 43.2883177,100.977561 C43.7806344,100.868094 44.0889539,100.388874 43.9770638,99.9072221 C42.5075731,93.5897926 38.7107671,88.1383641 34.5932094,83.2853522 C30.4731653,78.4372054 25.9478301,74.0050311 22.4369657,68.9209233 C19.1996105,64.2406251 16.8225663,58.8183877 16.8275392,53.3474985 C16.8275392,52.8853069 16.8449443,52.4206827 16.8797546,51.9584911 C16.9170513,51.4671085 16.5391112,51.0389731 16.0343623,51.0024843 C15.5320998,50.9659954 15.0919986,51.3357487 15.0571883,51.829564 L15.0571883,51.829564 C15.0198916,52.3379748 15,52.8439529 15,53.3499311 C15.0049729,59.3316637 17.5610413,65.0579745 20.9227189,69.925582 C24.5678515,75.1945663 29.1429156,79.6656621 33.1858799,84.4311009 L33.1858799,84.4311009 Z" id="Path" fill="#CEDE89"></path>
            <path d="M109.624397,93.9561038 C110.100368,94.1081811 110.610866,93.852305 110.766235,93.3864174 C111.87108,90.0552 113.79716,87.0812437 116.214009,84.4235116 C118.630858,81.7657795 121.536009,79.4339273 124.571868,77.4038159 C130.648516,73.3315234 137.452686,70.1668669 143.57126,65.8000754 C146.634246,63.6106449 149.549261,61.0422281 151.921719,58.089997 C154.291711,55.137766 156.121611,51.7968929 156.977373,48.0818614 C157.08835,47.6039041 156.780079,47.1283608 156.294243,47.0221481 C155.805941,46.9135214 155.320105,47.2152621 155.211593,47.6908055 L155.211593,47.6908055 C154.424884,51.0968545 152.738022,54.2011629 150.498738,56.9940748 C148.259453,59.7845728 145.46528,62.2540187 142.505873,64.3686175 C136.574728,68.6098849 129.787822,71.7697135 123.550872,75.940977 C120.428698,78.0314365 117.410103,80.4477761 114.862547,83.2455159 C112.317457,86.0432557 110.243406,89.2272235 109.044846,92.8408702 C108.889477,93.3067578 109.150892,93.8064404 109.626863,93.9585178 L109.624397,93.9561038 Z" id="Path" fill="#CEDE89"></path>
            <path d="M13.3912993,124.997523 C13.4714932,124.997523 13.551687,124.992568 13.6345539,124.980181 C14.436492,124.856314 14.9791368,124.152749 14.8454805,123.409547 C13.6078226,116.500242 13.6505927,109.501752 14.9764637,102.604834 C15.1208126,101.861631 14.5861872,101.153112 13.784249,101.021812 C12.984984,100.888036 12.2177966,101.383504 12.0761208,102.126707 C10.6887678,109.330816 10.6433247,116.64145 11.9371182,123.857946 C12.0574089,124.526828 12.6802475,125 13.3886262,125 L13.3912993,124.997523 Z" id="Path" fill="#FACCB8"></path>
            <path d="M33.3472794,129 L33.412253,129 C34.0706518,128.957209 34.5752798,128.30276 34.5406272,127.537557 C34.2330857,120.889863 34.3868565,114.159103 34.9932764,107.536579 C35.0625816,106.773894 34.5882745,106.091757 33.9320415,106.008692 C33.2823058,105.92311 32.6888806,106.479392 32.6195755,107.242077 C32.0001608,114.01311 31.8442242,120.889863 32.1560974,127.686067 C32.1907499,128.426098 32.7170358,129 33.3472794,129 L33.3472794,129 Z" id="Path" fill="#FACCB8"></path>
            <path d="M51.0248089,129.980493 C51.0938951,129.992685 51.1629813,130 51.2298389,130 C51.818186,130 52.3396754,129.534259 52.4399618,128.878321 C53.4294546,122.445734 53.9531726,115.879033 54,109.356224 C54.0044301,108.612502 53.4584262,108.007771 52.7809357,108.000456 C52.1391025,107.980948 51.5485269,108.590556 51.5418411,109.334278 C51.4972694,115.715658 50.9846943,122.14093 50.0174874,128.432087 C49.9038295,129.163617 50.3562327,129.858571 51.0248089,129.980493 Z" id="Path" fill="#FACCB8"></path>
            <path d="M71.3073339,130.985167 C71.3822969,130.995056 71.4572599,131 71.532223,131 C72.2790768,131 72.9315328,130.512995 73.0453655,129.835637 C74.0643074,123.689978 74.2669852,117.433073 73.6561754,111.242916 C73.5812123,110.493867 72.8399113,109.945059 71.9958832,110.00439 C71.1546314,110.071137 70.5327159,110.731189 70.6049026,111.48271 C71.1962775,117.462739 70.9991525,123.502098 70.016304,129.437628 C69.894142,130.181732 70.471635,130.873923 71.3073339,130.985167 Z" id="Path" fill="#FACCB8"></path>
            <path d="M92.2617711,129.992594 L92.4127421,130 C93.1240972,130 93.7356579,129.481557 93.8124229,128.782894 C94.4828367,122.694892 94.8820143,116.505672 94.9997206,110.385576 C95.0150736,109.635069 94.3958364,109.012937 93.6153929,109.000593 C92.8528611,108.978374 92.1926827,109.583224 92.1798885,110.336201 C92.0621823,116.377295 91.6681222,122.489984 91.0079438,128.498984 C90.9260612,129.247023 91.4864452,129.916062 92.2617711,129.995062 L92.2617711,129.992594 Z" id="Path" fill="#FACCB8"></path>
            <path d="M115.059491,127.990123 C115.107557,127.997531 115.155623,128 115.203689,128 C115.804512,128 116.324497,127.491359 116.398781,126.800002 C117.04767,120.661743 117.172204,114.424718 116.768014,108.259298 C116.717763,107.508682 116.143158,106.958066 115.478975,107.002511 C114.814792,107.059301 114.316655,107.711151 114.366906,108.461767 C114.760172,114.451879 114.640007,120.511126 114.008597,126.476546 C113.929944,127.222224 114.399678,127.901235 115.061676,127.990123 L115.059491,127.990123 Z" id="Path" fill="#FACCB8"></path>
            <path d="M137.214764,123.972915 C137.316393,123.990151 137.418022,124 137.516905,124 C138.222815,124 138.854564,123.556786 139.000141,122.911662 C140.376254,116.834701 140.178489,112.001202 139.329748,105.207711 C139.23636,104.464095 138.486502,103.924851 137.656988,104.00857 C136.824728,104.092288 136.228687,104.762034 136.319329,105.508111 C137.132362,112.028287 137.32738,116.645104 136.030923,122.369956 C135.863372,123.103722 136.393491,123.820252 137.214764,123.970452 L137.214764,123.972915 Z" id="Path" fill="#FACCB8"></path>
        </g>
    </g>
</svg>